<svg width="45" height="16" viewBox="0 0 45 16" fill="none" xmlns="http://www.w3.org/2000/svg">
<path d="M8.77695 7.24C9.48362 7.52 10.057 7.94667 10.497 8.52C10.9503 9.09333 11.177 9.83333 11.177 10.74C11.177 12.3267 10.7236 13.4333 9.81695 14.06C8.91029 14.6867 7.83029 15 6.57695 15H1.59695C1.25029 15 0.956953 14.8867 0.716953 14.66C0.490287 14.42 0.376953 14.1267 0.376953 13.78V2.22C0.376953 1.87333 0.490287 1.58667 0.716953 1.36C0.956953 1.12 1.25029 0.999999 1.59695 0.999999H6.63695C9.17029 0.999999 10.437 2.18667 10.437 4.56C10.437 5.16 10.2903 5.69333 9.99695 6.16C9.71695 6.61333 9.31029 6.97333 8.77695 7.24ZM7.83695 5C7.83695 4.45333 7.69695 4.04667 7.41695 3.78C7.15029 3.5 6.77029 3.36 6.27695 3.36H2.97695V6.48H6.33695C6.73695 6.48 7.08362 6.34667 7.37695 6.08C7.68362 5.81333 7.83695 5.45333 7.83695 5ZM6.57695 12.7C7.20362 12.7 7.69029 12.5333 8.03695 12.2C8.39695 11.8667 8.57695 11.38 8.57695 10.74C8.57695 9.95333 8.37029 9.44 7.95695 9.2C7.54362 8.96 7.03695 8.84 6.43695 8.84H2.97695V12.7H6.57695ZM21.6091 4.1C21.9558 4.1 22.2424 4.21333 22.4691 4.44C22.6958 4.66667 22.8091 4.96 22.8091 5.32V13.78C22.8091 14.1267 22.6958 14.42 22.4691 14.66C22.2424 14.8867 21.9558 15 21.6091 15C21.2624 15 20.9758 14.8867 20.7491 14.66C20.5358 14.4333 20.4224 14.1467 20.4091 13.8C20.0758 14.1867 19.6224 14.52 19.0491 14.8C18.4891 15.0667 17.8958 15.2 17.2691 15.2C16.3491 15.2 15.5158 14.9667 14.7691 14.5C14.0224 14.02 13.4291 13.36 12.9891 12.52C12.5624 11.68 12.3491 10.7267 12.3491 9.66C12.3491 8.59333 12.5624 7.64 12.9891 6.8C13.4158 5.94667 13.9958 5.28667 14.7291 4.82C15.4758 4.34 16.2958 4.1 17.1891 4.1C17.8291 4.1 18.4291 4.22 18.9891 4.46C19.5491 4.68667 20.0224 4.98 20.4091 5.34V5.32C20.4091 4.97333 20.5224 4.68667 20.7491 4.46C20.9758 4.22 21.2624 4.1 21.6091 4.1ZM17.5691 13C18.4358 13 19.1424 12.6867 19.6891 12.06C20.2358 11.42 20.5091 10.62 20.5091 9.66C20.5091 8.7 20.2358 7.9 19.6891 7.26C19.1424 6.62 18.4358 6.3 17.5691 6.3C16.7158 6.3 16.0158 6.62 15.4691 7.26C14.9224 7.9 14.6491 8.7 14.6491 9.66C14.6491 10.62 14.9158 11.42 15.4491 12.06C15.9958 12.6867 16.7024 13 17.5691 13ZM29.7367 4.1C30.87 4.1 31.7834 4.28 32.4767 4.64C33.17 4.98667 33.5167 5.45333 33.5167 6.04C33.5167 6.33333 33.43 6.59333 33.2567 6.82C33.0834 7.03333 32.8567 7.14 32.5767 7.14C32.3634 7.14 32.19 7.11333 32.0567 7.06C31.9234 6.99333 31.79 6.91333 31.6567 6.82C31.5367 6.71333 31.4167 6.62667 31.2967 6.56C31.1634 6.49333 30.9634 6.43333 30.6967 6.38C30.4434 6.32667 30.2367 6.3 30.0767 6.3C29.0767 6.3 28.29 6.61333 27.7167 7.24C27.1567 7.85333 26.8767 8.66 26.8767 9.66C26.8767 10.62 27.1634 11.42 27.7367 12.06C28.31 12.6867 29.0434 13 29.9367 13C30.59 13 31.0767 12.92 31.3967 12.76C31.4767 12.72 31.5834 12.6533 31.7167 12.56C31.8634 12.4533 31.9967 12.3733 32.1167 12.32C32.2367 12.2667 32.3834 12.24 32.5567 12.24C32.89 12.24 33.15 12.3467 33.3367 12.56C33.5367 12.7733 33.6367 13.0467 33.6367 13.38C33.6367 13.7 33.45 14 33.0767 14.28C32.7034 14.56 32.21 14.7867 31.5967 14.96C30.9834 15.12 30.33 15.2 29.6367 15.2C28.61 15.2 27.7034 14.96 26.9167 14.48C26.1434 14 25.5434 13.34 25.1167 12.5C24.69 11.6467 24.4767 10.7 24.4767 9.66C24.4767 8.58 24.6967 7.62 25.1367 6.78C25.59 5.94 26.2167 5.28667 27.0167 4.82C27.8167 4.34 28.7234 4.1 29.7367 4.1ZM43.9363 12.9C44.1897 13.1667 44.3163 13.4667 44.3163 13.8C44.3163 14.1333 44.183 14.4133 43.9163 14.64C43.663 14.8667 43.3897 14.98 43.0963 14.98C42.7497 14.98 42.4563 14.8467 42.2163 14.58L38.6163 10.78L37.6363 11.68V13.78C37.6363 14.1267 37.523 14.42 37.2963 14.66C37.0697 14.8867 36.783 15 36.4363 15C36.0897 15 35.803 14.8867 35.5763 14.66C35.3497 14.42 35.2363 14.1267 35.2363 13.78V1.42C35.2363 1.07333 35.3497 0.786666 35.5763 0.559999C35.803 0.319999 36.0897 0.2 36.4363 0.2C36.783 0.2 37.0697 0.319999 37.2963 0.559999C37.523 0.786666 37.6363 1.07333 37.6363 1.42V8.82L41.9163 4.68C42.1697 4.42667 42.463 4.3 42.7963 4.3C43.0897 4.3 43.3497 4.42667 43.5763 4.68C43.8163 4.92 43.9363 5.16667 43.9363 5.42C43.9363 5.74 43.7763 6.04 43.4563 6.32L40.4363 9.1L43.9363 12.9Z" fill="#446CFA"/>
</svg>
