<svg width="55" height="15" viewBox="0 0 55 15" fill="none" xmlns="http://www.w3.org/2000/svg">
<path d="M10.7904 -9.53674e-07C11.1637 -9.53674e-07 11.4637 0.113333 11.6904 0.339999C11.9171 0.566666 12.0304 0.859999 12.0304 1.22V12.78C12.0304 13.1267 11.9104 13.42 11.6704 13.66C11.4304 13.8867 11.1237 14 10.7504 14C10.4171 14 10.1304 13.8867 9.89039 13.66C9.65039 13.42 9.53039 13.1267 9.53039 12.78V8.12H3.15039V12.78C3.15039 13.1267 3.02372 13.42 2.77039 13.66C2.51706 13.8867 2.22372 14 1.89039 14C1.53039 14 1.23039 13.8867 0.990391 13.66C0.763724 13.42 0.650391 13.1267 0.650391 12.78V1.22C0.650391 0.873333 0.770391 0.586666 1.01039 0.359999C1.25039 0.119999 1.55706 -9.53674e-07 1.93039 -9.53674e-07C2.26372 -9.53674e-07 2.55039 0.119999 2.79039 0.359999C3.03039 0.586666 3.15039 0.873333 3.15039 1.22V5.82H9.53039V1.22C9.53039 0.873333 9.65706 0.586666 9.91039 0.359999C10.1637 0.119999 10.4571 -9.53674e-07 10.7904 -9.53674e-07ZM24.7721 8.66C24.7721 9.72667 24.5321 10.6867 24.0521 11.54C23.5721 12.38 22.9121 13.0333 22.0721 13.5C21.2454 13.9667 20.3321 14.2 19.3321 14.2C18.3187 14.2 17.3987 13.9667 16.5721 13.5C15.7454 13.0333 15.0921 12.38 14.6121 11.54C14.1321 10.6867 13.8921 9.72667 13.8921 8.66C13.8921 7.59333 14.1321 6.64 14.6121 5.8C15.0921 4.94667 15.7454 4.28667 16.5721 3.82C17.3987 3.34 18.3187 3.1 19.3321 3.1C20.3321 3.1 21.2454 3.34 22.0721 3.82C22.9121 4.28667 23.5721 4.94667 24.0521 5.8C24.5321 6.64 24.7721 7.59333 24.7721 8.66ZM22.3721 8.66C22.3721 8.00667 22.2321 7.42667 21.9521 6.92C21.6854 6.4 21.3187 6 20.8521 5.72C20.3987 5.44 19.8921 5.3 19.3321 5.3C18.7721 5.3 18.2587 5.44 17.7921 5.72C17.3387 6 16.9721 6.4 16.6921 6.92C16.4254 7.42667 16.2921 8.00667 16.2921 8.66C16.2921 9.31333 16.4254 9.89333 16.6921 10.4C16.9721 10.9067 17.3387 11.3 17.7921 11.58C18.2587 11.86 18.7721 12 19.3321 12C19.8921 12 20.3987 11.86 20.8521 11.58C21.3187 11.3 21.6854 10.9067 21.9521 10.4C22.2321 9.89333 22.3721 9.31333 22.3721 8.66ZM38.7839 3.1C40.1039 3.1 41.0172 3.50667 41.5239 4.32C42.0306 5.12 42.2839 6.23333 42.2839 7.66V12.78C42.2839 13.1267 42.1706 13.42 41.9439 13.66C41.7172 13.8867 41.4305 14 41.0839 14C40.7372 14 40.4505 13.8867 40.2239 13.66C39.9972 13.42 39.8839 13.1267 39.8839 12.78V7.66C39.8839 6.92667 39.7372 6.35333 39.4439 5.94C39.1639 5.51333 38.6639 5.3 37.9439 5.3C37.1972 5.3 36.6106 5.52667 36.1839 5.98C35.7706 6.42 35.5639 6.98 35.5639 7.66V12.78C35.5639 13.1267 35.4505 13.42 35.2239 13.66C34.9972 13.8867 34.7105 14 34.3639 14C34.0172 14 33.7305 13.8867 33.5039 13.66C33.2772 13.42 33.1639 13.1267 33.1639 12.78V7.66C33.1639 6.92667 33.0172 6.35333 32.7239 5.94C32.4439 5.51333 31.9439 5.3 31.2239 5.3C30.4772 5.3 29.8905 5.52667 29.4639 5.98C29.0505 6.42 28.8439 6.98 28.8439 7.66V12.78C28.8439 13.1267 28.7305 13.42 28.5039 13.66C28.2772 13.8867 27.9905 14 27.6439 14C27.2972 14 27.0105 13.8867 26.7839 13.66C26.5572 13.42 26.4439 13.1267 26.4439 12.78V4.52C26.4439 4.17333 26.5572 3.88667 26.7839 3.66C27.0105 3.42 27.2972 3.3 27.6439 3.3C27.9905 3.3 28.2772 3.42 28.5039 3.66C28.7305 3.88667 28.8439 4.17333 28.8439 4.52V4.84C29.2039 4.36 29.6572 3.95333 30.2039 3.62C30.7639 3.27333 31.3839 3.1 32.0639 3.1C33.7439 3.1 34.8172 3.83333 35.2839 5.3C35.5906 4.74 36.0506 4.23333 36.6639 3.78C37.2905 3.32667 37.9972 3.1 38.7839 3.1ZM54.148 8.4C54.1347 8.72 54.008 8.98 53.768 9.18C53.528 9.38 53.248 9.48 52.928 9.48H46.328C46.488 10.2667 46.8547 10.8867 47.428 11.34C48.0014 11.78 48.648 12 49.368 12C49.9147 12 50.3414 11.9533 50.648 11.86C50.9547 11.7533 51.1947 11.6467 51.368 11.54C51.5547 11.42 51.6814 11.34 51.748 11.3C51.988 11.18 52.2147 11.12 52.428 11.12C52.708 11.12 52.948 11.22 53.148 11.42C53.348 11.62 53.448 11.8533 53.448 12.12C53.448 12.48 53.2614 12.8067 52.888 13.1C52.5147 13.4067 52.0147 13.6667 51.388 13.88C50.7614 14.0933 50.128 14.2 49.488 14.2C48.368 14.2 47.388 13.9667 46.548 13.5C45.7214 13.0333 45.0814 12.3933 44.628 11.58C44.1747 10.7533 43.948 9.82667 43.948 8.8C43.948 7.65333 44.188 6.64667 44.668 5.78C45.148 4.91333 45.7814 4.25333 46.568 3.8C47.3547 3.33333 48.1947 3.1 49.088 3.1C49.968 3.1 50.7947 3.34 51.568 3.82C52.3547 4.3 52.9814 4.94667 53.448 5.76C53.9147 6.57333 54.148 7.45333 54.148 8.4ZM49.088 5.3C47.5414 5.3 46.628 6.02667 46.348 7.48H51.588V7.34C51.5347 6.78 51.2614 6.3 50.768 5.9C50.2747 5.5 49.7147 5.3 49.088 5.3Z" fill="white"/>
</svg>
