<svg width="92" height="90" viewBox="0 0 92 90" fill="none" xmlns="http://www.w3.org/2000/svg">
<path d="M92 45C92 69.8528 71.4051 90 46 90C20.5949 90 0 69.8528 0 45C0 20.1472 20.5949 0 46 0C71.4051 0 92 20.1472 92 45Z" fill="#D6D6D6"/>
<path d="M66.9691 71.9315H24.8435V62.1053C24.8435 54.2466 32.116 47.8759 41.0869 47.8759H50.7257C59.6967 47.8759 66.9691 54.2466 66.9691 62.1053V71.9315Z" fill="#9EC8FC"/>
<path d="M24.8435 69.7322H66.9692V71.9315H24.8435V69.7322Z" fill="#80B6FC"/>
<path d="M51.3147 47.8759C51.3147 47.8759 51.5627 53.5285 45.9057 53.5285C40.2488 53.5285 40.4969 47.8759 40.4969 47.8759H51.3147Z" fill="#E2AE84"/>
<path d="M63.3188 33.5559C63.4642 31.3651 63.4483 29.373 63.2908 27.5627H28.521C28.3635 29.373 28.3476 31.3652 28.4929 33.5559H63.3188Z" fill="#26457D"/>
<path d="M64.1288 27.5627C63.419 14.9868 54.4443 11.3282 45.9059 11.3282C37.3675 11.3282 28.3928 14.9868 27.683 27.5627H64.1288Z" fill="#DC4955"/>
<path d="M27.9032 25.3634C27.8006 26.0644 27.7262 26.7967 27.683 27.5627H64.1288C64.0856 26.7967 64.0111 26.0644 63.9086 25.3634H27.9032Z" fill="#D82F3C"/>
<path d="M54.7541 27.5627H37.0586C34.5475 31.1846 32.7233 31.6983 32.7227 31.6984V36.327C32.7227 42.7052 38.6252 47.8758 45.9063 47.8758C53.1873 47.8758 59.0899 42.7052 59.0899 36.327V31.6984C59.0899 31.6984 57.2654 31.1848 54.7541 27.5627Z" fill="#F0C69E"/>
<path d="M45.9063 45.6766C38.6253 45.6766 32.7227 40.506 32.7227 34.1277V36.3271C32.7227 42.7053 38.6252 47.8759 45.9063 47.8759C53.1873 47.8759 59.0899 42.7053 59.0899 36.3271V34.1277C59.0899 40.506 53.1873 45.6766 45.9063 45.6766Z" fill="#E6BA94"/>
<path d="M32.7227 36.327V31.6984C32.5733 31.6849 32.4216 31.678 32.2682 31.678C29.8404 31.678 27.8723 33.402 27.8723 35.5289C27.8723 37.6556 29.8403 39.3797 32.2682 39.3797C32.5753 39.3797 32.875 39.352 33.1645 39.2993C32.8769 38.3508 32.7227 37.3548 32.7227 36.327Z" fill="#E2AE84"/>
<path d="M59.5444 31.678C59.391 31.678 59.2392 31.6849 59.0899 31.6984V36.327C59.0899 37.3546 58.9357 38.3508 58.6481 39.2993C58.9375 39.3519 59.2373 39.3797 59.5444 39.3797C61.9722 39.3797 63.9403 37.6556 63.9403 35.5289C63.9403 33.402 61.9722 31.678 59.5444 31.678Z" fill="#E2AE84"/>
<path d="M32.2682 37.1804C30.2767 37.1804 28.5954 36.02 28.0551 34.4292C27.9367 34.7778 27.8723 35.1467 27.8723 35.5289C27.8723 37.6556 29.8403 39.3797 32.2682 39.3797C32.5753 39.3797 32.875 39.352 33.1645 39.2993C32.955 38.6083 32.8172 37.8915 32.7573 37.156C32.5966 37.1716 32.4336 37.1804 32.2682 37.1804Z" fill="#D7A379"/>
<path d="M59.5444 37.1804C59.379 37.1804 59.216 37.1717 59.0553 37.1561C58.9954 37.8916 58.8578 38.6082 58.6483 39.2994C58.9377 39.352 59.2374 39.3798 59.5446 39.3798C61.9723 39.3798 63.9405 37.6557 63.9405 35.529C63.9405 35.1468 63.876 34.7779 63.7576 34.4293C63.2172 36.0199 61.5359 37.1804 59.5444 37.1804Z" fill="#D7A379"/>
<path d="M51.512 27.5627H40.3004V23.8759C40.3004 21.1638 42.8102 18.9651 45.9062 18.9651C49.0021 18.9651 51.5119 21.1637 51.5119 23.8759V27.5627H51.512Z" fill="#26457D"/>
<path d="M40.3005 24.1836H51.5122V27.5627H40.3005V24.1836Z" fill="#F6E080"/>
<path d="M40.3005 25.3634H51.5122V27.5627H40.3005V25.3634Z" fill="#ECCD61"/>
<path d="M67.0104 66.6625C66.4314 66.6625 65.9622 67.0737 65.9622 67.5808V71.0727H59.7211V63.908C59.7211 63.401 59.2519 62.9898 58.673 62.9898C58.094 62.9898 57.6248 63.401 57.6248 63.908V71.0727H34.1875V63.908C34.1875 63.401 33.7183 62.9898 33.1393 62.9898C32.5604 62.9898 32.0912 63.401 32.0912 63.908V71.0727H25.8501V62.1454C25.8501 60.1236 26.3531 58.1818 27.345 56.3739C27.5957 55.917 27.3761 55.3684 26.8543 55.1487C26.3328 54.9292 25.7064 55.1213 25.4557 55.5785C24.3264 57.6366 23.7538 59.846 23.7538 62.1455V71.9909C23.7538 72.4979 24.223 72.9091 24.8019 72.9091H67.0101C67.5891 72.9091 68.0583 72.4981 68.0583 71.9909V67.5808C68.0586 67.0736 67.5894 66.6625 67.0104 66.6625Z" fill="black"/>
<path d="M53.075 47.1088C56.0321 45.5957 58.3149 43.1772 59.4238 40.2901C59.4729 40.2912 59.522 40.2934 59.5712 40.2934C62.5778 40.2934 65.0238 38.1507 65.0238 35.5169C65.0238 34.7279 64.803 33.9837 64.4147 33.3273C64.5193 31.6064 64.5269 29.9617 64.4373 28.4205C64.6211 28.377 64.7899 28.2913 64.9237 28.1682C65.1216 27.9861 65.2254 27.741 65.2114 27.4899C64.8708 21.4563 62.6627 16.9082 58.6484 13.9722C55.4093 11.603 51.0031 10.3508 45.9059 10.3508C41.2931 10.3508 37.2058 11.3868 34.0857 13.3465C33.6152 13.6419 33.5073 14.2156 33.8447 14.6277C34.1822 15.0398 34.8368 15.1341 35.3071 14.8388C38.0689 13.104 41.734 12.1871 45.9057 12.1871C59.3573 12.1871 62.471 20.8178 63.0428 26.6169H54.7712H52.5711V23.8411C52.5711 20.6217 49.5813 18.0025 45.9062 18.0025C42.2311 18.0025 39.2412 20.6217 39.2412 23.8411V26.617H37.0411H28.7667C29.1369 22.7193 30.3894 19.5549 32.4964 17.2004C32.8536 16.8013 32.7736 16.2241 32.3181 15.9113C31.8626 15.5984 31.204 15.6682 30.8466 16.0675C28.296 18.9178 26.8675 22.7607 26.6004 27.4897C26.5863 27.7408 26.6902 27.9861 26.8881 28.1681C27.0217 28.2912 27.1908 28.3769 27.3745 28.4204C27.2849 29.9625 27.2924 31.6078 27.3972 33.3284C27.0094 33.9846 26.7888 34.7283 26.7888 35.5167C26.7888 38.1505 29.2348 40.2933 32.2414 40.2933C32.2905 40.2933 32.3396 40.2911 32.3888 40.29C33.4977 43.177 35.7802 45.5953 38.737 47.1085C34.5507 47.6071 30.6939 49.4325 27.9078 52.2858C27.5315 52.6711 27.5831 53.2507 28.023 53.5803C28.4628 53.9101 29.1245 53.8647 29.5008 53.4794C32.0551 50.8634 35.6332 49.2308 39.4956 48.8787C39.6306 49.9613 40.0665 51.678 41.4437 52.9319C42.5647 53.9524 44.0659 54.4697 45.9057 54.4697C47.7456 54.4697 49.2468 53.9524 50.3678 52.9319C51.7454 51.6778 52.1811 49.9604 52.316 48.8777C59.9722 49.5728 65.9621 55.2577 65.9621 62.1452V63.9078C65.9621 64.4149 66.4313 64.826 67.0103 64.826C67.5892 64.826 68.0584 64.4149 68.0584 63.9078V62.1452C68.0586 54.4727 61.5245 48.1128 53.075 47.1088ZM62.3948 31.4319C61.5083 30.9565 60.4178 30.6967 59.3157 30.746C58.9618 30.5693 58.0107 29.9951 56.7243 28.4533H62.3405C62.3976 29.4051 62.4156 30.4005 62.3948 31.4319ZM59.9573 38.4371C60.0924 37.7476 60.1639 37.0394 60.1639 36.3167V32.6236C61.7328 32.8695 62.9276 34.0729 62.9276 35.517C62.9275 37.0236 61.6267 38.2687 59.9573 38.4371ZM45.9063 19.839C48.1889 19.839 50.0858 21.3129 50.4219 23.2313H41.3906C41.7269 21.3129 43.6238 19.839 45.9063 19.839ZM41.3377 25.0676H50.475V26.617H41.3377V25.0676ZM28.8851 35.5169C28.8851 34.0728 30.0799 32.8694 31.6489 32.6234V36.3166C31.6489 37.0393 31.7202 37.7476 31.8553 38.4369C30.1859 38.2687 28.8851 37.0236 28.8851 35.5169ZM32.4972 30.7461C31.3946 30.6968 30.3039 30.9567 29.417 31.4324C29.3962 30.4011 29.4142 29.4056 29.4712 28.4533H35.088C33.8024 29.9942 32.8513 30.569 32.4972 30.7461ZM33.7451 36.3166V32.2315C34.5648 31.7789 35.9551 30.7484 37.6236 28.4533H54.1889C55.8554 30.7439 57.2574 31.7774 58.0674 32.2289V36.3166C58.0674 42.1908 52.612 46.9699 45.9062 46.9699C39.2004 46.9699 33.7451 42.1908 33.7451 36.3166ZM45.9059 52.6335C44.6443 52.6335 43.6811 52.3167 42.9611 51.6648C42.0419 50.8325 41.7133 49.6229 41.5967 48.8062H50.2149C50.0982 49.6235 49.7696 50.8328 48.8505 51.6648C48.1307 52.3167 47.1675 52.6335 45.9059 52.6335Z" fill="black"/>
<path d="M39.5057 31.8421C38.9267 31.8421 38.4575 32.2531 38.4575 32.7603V35.3545C38.4575 35.8616 38.9267 36.2727 39.5057 36.2727C40.0846 36.2727 40.5538 35.8616 40.5538 35.3545V32.7603C40.5537 32.2531 40.0845 31.8421 39.5057 31.8421Z" fill="black"/>
<path d="M52.3069 36.2726C52.8859 36.2726 53.3551 35.8614 53.3551 35.3544V32.7602C53.3551 32.2531 52.8859 31.8419 52.3069 31.8419C51.728 31.8419 51.2588 32.253 51.2588 32.7602V35.3544C51.2589 35.8616 51.7281 36.2726 52.3069 36.2726Z" fill="black"/>
<path d="M49.7623 40.3405C49.9825 39.8715 49.7273 39.335 49.1921 39.1418C48.6567 38.9488 48.0442 39.1724 47.8238 39.6413C47.8203 39.649 47.4174 40.4161 45.9063 40.4161C44.3952 40.4161 43.9924 39.649 43.9887 39.6413C43.7684 39.1724 43.1558 38.9489 42.6205 39.1418C42.0851 39.3349 41.83 39.8715 42.0503 40.3405C42.384 41.0506 43.5718 42.2525 45.9063 42.2525C48.2407 42.2525 49.4284 41.0506 49.7623 40.3405Z" fill="black"/>
</svg>
