<svg width="85" height="85" viewBox="0 0 85 85" fill="none" xmlns="http://www.w3.org/2000/svg">
<circle cx="42.5" cy="42.5" r="42.5" fill="#D6D6D6"/>
<path d="M69.4986 60.985L55.0493 56.7352H29.9509L15.5015 60.985C12.0008 62.0148 9.59686 65.2275 9.59686 68.8766V80.8871C9.59686 83.1586 11.4383 85 13.7097 85H71.2904C73.5619 85 75.4033 83.1586 75.4033 80.8871V68.8766C75.4033 65.2275 72.9992 62.0146 69.4986 60.985Z" fill="#EDEBED"/>
<path d="M49.3548 85H35.6452L32.9033 57.5807H52.0967L49.3548 85Z" fill="#A5CDFF"/>
<path d="M32.9033 57.5807L33.3137 61.6846C35.573 64.2087 38.846 65.8066 42.5002 65.8066C46.1543 65.8066 49.4273 64.2087 51.6866 61.6846L52.097 57.5807H32.9033Z" fill="#8CB4EB"/>
<path d="M42.5 63.0645C37.1998 63.0645 32.9031 58.7679 32.9031 53.4678V43.871H52.0967V53.4678C52.0967 58.7679 47.8002 63.0645 42.5 63.0645Z" fill="#F7D291"/>
<path d="M32.9033 49.6715C35.7837 51.21 39.0497 52.0969 42.5 52.0969C45.9503 52.0969 49.2165 51.21 52.0967 49.6715V43.871H32.9033V49.6715Z" fill="#F0C382"/>
<path d="M61.0081 26.0484H60.3226V12.3388H24.6774V26.0485H23.9919C22.1068 26.0485 20.5645 27.5908 20.5645 29.4759C20.5645 31.361 22.1068 32.9033 23.9919 32.9033H24.7466C25.4489 42.1037 33.1196 49.3549 42.5 49.3549C51.8804 49.3549 59.5511 42.1037 60.2534 32.9033H61.0081C62.8932 32.9033 64.4355 31.361 64.4355 29.4759C64.4355 27.5908 62.8932 26.0484 61.0081 26.0484Z" fill="#FFE1A0"/>
<path d="M34.2743 30.2804C33.5164 30.2804 32.9033 29.6665 32.9033 28.9095V27.5385C32.9033 26.7815 33.5166 26.1675 34.2743 26.1675C35.032 26.1675 35.6452 26.7815 35.6452 27.5385V28.9095C35.6452 29.6667 35.032 30.2804 34.2743 30.2804Z" fill="#6E5A64"/>
<path d="M50.7257 30.2804C49.9679 30.2804 49.3548 29.6665 49.3548 28.9095V27.5385C49.3548 26.7815 49.968 26.1675 50.7257 26.1675C51.4836 26.1675 52.0967 26.7815 52.0967 27.5385V28.9095C52.0967 29.6667 51.4836 30.2804 50.7257 30.2804Z" fill="#6E5A64"/>
<path d="M35.6452 24.6774H32.9033C32.1454 24.6774 31.5323 24.0635 31.5323 23.3064C31.5323 22.5494 32.1456 21.9355 32.9033 21.9355H35.6452C36.4031 21.9355 37.0162 22.5494 37.0162 23.3064C37.0162 24.0635 36.4029 24.6774 35.6452 24.6774Z" fill="#A06E50"/>
<path d="M52.0967 24.6774H49.3548C48.5969 24.6774 47.9838 24.0635 47.9838 23.3064C47.9838 22.5494 48.5971 21.9355 49.3548 21.9355H52.0967C52.8546 21.9355 53.4677 22.5494 53.4677 23.3064C53.4677 24.0635 52.8546 24.6774 52.0967 24.6774Z" fill="#A06E50"/>
<path d="M24.6774 12.3388V26.0485H24.1123C22.5514 26.0485 21.0934 27.0376 20.689 28.5454C20.0776 30.8253 21.8038 32.9035 23.9919 32.9035H24.7466C25.4489 42.1039 33.1196 49.3551 42.5 49.3551C43.4378 49.3551 44.3522 49.2638 45.2505 49.1242C36.7084 47.8057 30.1612 40.4439 30.1612 31.5325V23.2012C30.1612 19.9826 32.8796 17.3626 36.0873 17.6269C36.9851 17.7009 37.9279 17.7404 38.9185 17.7404C42.894 17.7404 47.3327 17.1059 52.112 15.8547C54.2001 15.308 55.9962 14.0353 57.2233 12.3388H24.6774Z" fill="#F7D291"/>
<path d="M31.3608 6.85478L31.5322 12.3386C31.5322 12.3386 27.4193 16.4515 27.4193 21.9353V23.6277C27.4193 25.0104 26.3897 26.1768 25.0174 26.3485L21.9353 26.7338V15.0807C21.9355 10.5377 26.2197 6.62634 31.3608 6.85478Z" fill="#A06E50"/>
<path d="M58.9253 64.4091L56.2097 61.6936L59.1158 57.8188C59.7442 56.9809 59.4605 55.7786 58.5237 55.3101L52.0969 52.0967L42.5 85H50.7257L59.4387 67.574C59.9665 66.5183 59.7596 65.2435 58.9253 64.4091Z" fill="#DBD9DC"/>
<path d="M68.5484 76.0888H66.4919V74.0323C66.4919 73.2745 65.8787 72.6614 65.121 72.6614C64.3633 72.6614 63.75 73.2745 63.75 74.0322V76.0886H61.6936C60.9357 76.0886 60.3226 76.7019 60.3226 77.4596C60.3226 78.2173 60.9359 78.8305 61.6936 78.8305H63.75V80.887C63.75 81.6448 64.3633 82.2579 65.121 82.2579C65.8787 82.2579 66.4919 81.6447 66.4919 80.887V78.8305H68.5484C69.3062 78.8305 69.9193 78.2173 69.9193 77.4596C69.9193 76.7019 69.3061 76.0888 68.5484 76.0888Z" fill="#A5CDFF"/>
<path d="M53.639 2.74191L53.4677 12.3386C53.4677 12.3386 57.5805 16.4515 57.5805 21.9353V23.6277C57.5805 25.0104 58.6102 26.1768 59.9824 26.3485L63.0645 26.7338V10.9678C63.0645 6.4248 58.7803 2.51348 53.639 2.74191Z" fill="#CD916E"/>
<path d="M42.5 39.7581C40.4422 39.7581 38.545 39.098 37.4244 37.9922C36.8849 37.4593 36.8795 36.5918 37.411 36.0536C37.9452 35.5141 38.8128 35.5088 39.3495 36.0402C39.8061 36.4901 40.9039 37.0162 42.4998 37.0162C44.0957 37.0162 45.1936 36.4901 45.6502 36.0402C46.187 35.5086 47.0546 35.5141 47.5887 36.0536C48.1203 36.5918 48.1148 37.4594 47.5753 37.9922C46.455 39.098 44.5578 39.7581 42.5 39.7581Z" fill="#E3AA75"/>
<path d="M26.0749 64.4091L28.7904 61.6936L25.8843 57.8188C25.256 56.9809 25.5397 55.7786 26.4765 55.3101L32.9033 52.0967L42.5 85H34.2743L25.5613 67.574C25.0335 66.5183 25.2404 65.2435 26.0749 64.4091Z" fill="#DBD9DC"/>
<path d="M45.1562 0C33.7181 0 31.526 3.4772 22.7184 6.28253C22.1131 6.47527 21.8407 7.17636 22.1828 7.71143C24.094 10.701 31.2076 18.4935 51.4175 13.2021C53.7841 12.5825 55.6039 10.6743 56.0837 8.27538C56.6395 5.49611 54.9505 2.74357 52.411 1.48518C50.3939 0.485762 47.7486 0 45.1562 0Z" fill="#B67F5F"/>
<path d="M28.7903 85H17.8224C17.0652 85 16.4515 84.3862 16.4515 83.629V78.1452C16.4515 77.388 17.0652 76.7743 17.8224 76.7743H28.7903C29.5475 76.7743 30.1612 77.388 30.1612 78.1452V83.629C30.1612 84.3862 29.5475 85 28.7903 85Z" fill="#A5CDFF"/>
<path d="M23.3064 79.5162C22.5486 79.5162 21.9355 78.9029 21.9355 78.1452V74.0323C21.9355 73.2745 22.5487 72.6614 23.3064 72.6614C24.0641 72.6614 24.6774 73.2746 24.6774 74.0323V78.1452C24.6774 78.9029 24.0643 79.5162 23.3064 79.5162Z" fill="white"/>
<path d="M28.7903 82.2581H17.8224C17.0652 82.2581 16.4515 81.6442 16.4515 80.8871V83.629C16.4515 84.3861 17.0652 85 17.8224 85H28.7903C29.5475 85 30.1612 84.3861 30.1612 83.629V80.8871C30.1612 81.6442 29.5475 82.2581 28.7903 82.2581Z" fill="#8CB4EB"/>
</svg>
